PathFileType	4	(X/Y/Z)	pose_F01_0-87.trc
DataRate	CameraRate	NumFrames	NumMarkers	Units	OrigDataRate	OrigDataStartFrame	OrigNumFrames
30	30	7	21	m	30	74	87
Frame#	Time	CHip			RHip			RKnee			RAnkle			RBigToe			RSmallToe			RHeel			LHip			LKnee			LAnkle			LBigToe			LSmallToe			LHeel			Neck			Nose			RShoulder			RElbow			RWrist			LShoulder			LElbow			LWrist			
		X1	Y1	Z1	X2	Y2	Z2	X3	Y3	Z3	X4	Y4	Z4	X5	Y5	Z5	X6	Y6	Z6	X7	Y7	Z7	X8	Y8	Z8	X9	Y9	Z9	X10	Y10	Z10	X11	Y11	Z11	X12	Y12	Z12	X13	Y13	Z13	X14	Y14	Z14	X15	Y15	Z15	X16	Y16	Z16	X17	Y17	Z17	X18	Y18	Z18	X19	Y19	Z19	X20	Y20	Z20	X21	Y21	Z21	
74	2.466666666666667	-0.23148082447071688	1.8757315911439894	-0.2939537559662069	-0.23738574364080087	1.8716513227586287	-0.21958911614197243	-0.2642744488172772	1.7594960426023472	-0.33858053713395186													-0.22190561717623739	1.8791806139021558	-0.35261077016503506	-0.21871371257997227	1.7510217241920236	-0.37048214216060654	-0.22115160051922772	1.6288496214876436	-0.4228910722066942	-0.222572248325633	1.579274076185378	-0.4892508617163486	-0.21570677676120492	1.5852419255135137	-0.5152626718791133	-0.21641877950188732	1.624297245003921	-0.3954348326531239	-0.23121249649335743	2.025719523832452	-0.31429655547725577	-0.23867612863568527	2.0982364614404876	-0.36627277851209716	-0.24432035843212566	2.0227626283322047	-0.22049386458082068	-0.2527877373005064	1.9397118391660335	-0.16553547518696526	-0.2654556178194204	1.864895088667007	-0.10364149073888132	-0.21533003974915318	2.0303013380657284	-0.40883281360406465	-0.20422381138477974	1.9537200092998444	-0.43851749464347567	-0.18511238328506116	1.8854728476544083	-0.4968471827767003
75	2.5	-0.22966438754550017	1.8763668462377525	-0.2962330555496193	-0.2367641196838357	1.874682189574681	-0.22569293292027617	-0.23753481134936535	1.749160352984807	-0.1898600942256688													-0.2200406454963419	1.8795202921570795	-0.3548039997418814	-0.21900416371652565	1.750577083402418	-0.3702610870412952	-0.22115160051922772	1.6288496214876436	-0.4228910722066942	-0.222572248325633	1.579274076185378	-0.4892508617163486	-0.21570677676120492	1.5852419255135137	-0.5152626718791133	-0.21641877950188732	1.624297245003921	-0.3954348326531239	-0.23223080853436284	2.026191485135017	-0.31776370278482174	-0.2395550658405106	2.0986413831032507	-0.3693810072671264	-0.24486577675571822	2.023523761778386	-0.22909528503677515	-0.25097742904745957	1.9402973922740425	-0.17426730109213784	-0.2681094838939616	1.864882366001892	-0.13652782034979768	-0.2144410914082548	2.0292043201573318	-0.4136293957866259	-0.20226258025334165	1.9502976289538958	-0.42258194716604225	-0.19132046794631843	1.8784417941046831	-0.4683487911847375
76	2.533333333333333	-0.22892171997867786	1.8746239626853487	-0.3015621445235696	-0.2410777376052969	1.8714192756827412	-0.23870527465665559	-0.23664349010043495	1.7488158299975556	-0.184902746128726													-0.2230894747379837	1.878344370593948	-0.3733859629440712	-0.21814461885864359	1.750265663121151	-0.375894867924476	-0.22115160051922772	1.6288496214876436	-0.4228910722066942	-0.222572248325633	1.579274076185378	-0.4892508617163486	-0.21570677676120492	1.5852419255135137	-0.5152626718791133	-0.21641877950188732	1.624297245003921	-0.3954348326531239	-0.2314654091640617	2.0265552296512914	-0.32313469205280954	-0.23986550152641023	2.100783408016576	-0.37846389651611423	-0.24592424728371848	2.0241590145724198	-0.2325877094313025	-0.2451766563653727	1.9406465750705841	-0.18597487128982002	-0.2575685166447843	1.863559754904919	-0.15478831422580436	-0.21443551894036486	2.030514363509173	-0.4143710028079809	-0.20334054768759643	1.9530976932545459	-0.41748077331925176	-0.19241181741383934	1.884918706957492	-0.45146027001316763
77	2.566666666666667	-0.22934259151758932	1.8773520355489366	-0.3108089647827235	-0.23875595742432448	1.8722681285838818	-0.24681028235957533	-0.23575216885150457	1.7484713070103044	-0.17994539803178325													-0.22249356950083726	1.8783574827767364	-0.3792898508896692	-0.22349153129844102	1.751126447705526	-0.3928171012081433	-0.22115160051922772	1.6288496214876436	-0.4228910722066942	-0.222572248325633	1.579274076185378	-0.4892508617163486	-0.21570677676120492	1.5852419255135137	-0.5152626718791133	-0.21641877950188732	1.624297245003921	-0.3954348326531239	-0.22897300409211127	2.0267102675900595	-0.3305482656939646	-0.23938094439000684	2.100471919101179	-0.3914434502247776	-0.24362882918984138	2.0246496173866193	-0.2400756838862115	-0.24313469157841455	1.9397667102361071	-0.19359761242019835	-0.25030196439367686	1.8665151446533814	-0.18372064360203644	-0.21357049654889404	2.0306609762665087	-0.4196080944786962	-0.20544247518382272	1.952799294575103	-0.4241582916830018	-0.19700677231746863	1.8839910798267454	-0.44903366191943744
78	2.6	-0.23238097096083013	1.8774294819817567	-0.32085990589040037	-0.2397536489136062	1.8733093353338761	-0.25043444745904736	-0.23486084760257417	1.748126784023053	-0.1749880499348405													-0.22322552747624785	1.8803386714610528	-0.38282824736865256	-0.22257403147666413	1.7506405748080982	-0.393878106198316	-0.22115160051922772	1.6288496214876436	-0.4228910722066942	-0.222572248325633	1.579274076185378	-0.4892508617163486	-0.21570677676120492	1.5852419255135137	-0.5152626718791133	-0.21641877950188732	1.624297245003921	-0.3954348326531239	-0.2289221597605079	2.026447822626869	-0.3307761390312929	-0.23850738888036524	2.1024406664568747	-0.39733979108149675	-0.24186118705099544	2.0233808869633445	-0.2416937601030089	-0.24759071455313061	1.9389082481775395	-0.20669234006277304	-0.2509043339548372	1.86286381157295	-0.19224492691886919	-0.21167038866129784	2.029430708374283	-0.4213666855149428	-0.20754440268004898	1.9525008958956598	-0.43083581004675175	-0.20160172722109793	1.8830634526959986	-0.4466070538257072
79	2.6333333333333333	-0.23093961486121883	1.8731427692060527	-0.3313095394878418	-0.2357434159088122	1.8709180716586413	-0.25966077145650934	-0.23396952635364376	1.7477822610358016	-0.1700307018378977													-0.2176191689575011	1.8765402874618944	-0.3888409551331753	-0.22165653165488725	1.7501547019106707	-0.39493911118848873	-0.22115160051922772	1.6288496214876436	-0.4228910722066942	-0.222572248325633	1.579274076185378	-0.4892508617163486	-0.21570677676120492	1.5852419255135137	-0.5152626718791133	-0.21641877950188732	1.624297245003921	-0.3954348326531239	-0.22640716499441577	2.0263877810612976	-0.3381924232748305	-0.23569043522530042	2.10164409259516	-0.4041232537022088	-0.2396018700079849	2.022004486972379	-0.2492543239899468	-0.2436759059710478	1.9381107979009804	-0.2162662967476325	-0.25025205739755935	1.8653165842188717	-0.19788694108664534	-0.2098727137034642	2.0283693340945947	-0.42381266696698683	-0.20964633017627526	1.9522024972162169	-0.4375133284105018	-0.20619668212472722	1.882135825565252	-0.444180445731977
80	2.6666666666666665	-0.22913223495861276	1.8725696005340577	-0.3338016197259194	-0.2400414606577531	1.8708170459374327	-0.27308470756767117	-0.2330782051047134	1.7474377380485504	-0.16507335374095494													-0.21688254888740174	1.8759271763538548	-0.39423176616380057	-0.22103965681665408	1.7482599881803589	-0.39773013046550815	-0.22115160051922772	1.6288496214876436	-0.4228910722066942	-0.222572248325633	1.579274076185378	-0.4892508617163486	-0.21570677676120492	1.5852419255135137	-0.5152626718791133	-0.21641877950188732	1.624297245003921	-0.3954348326531239	-0.22740718615829064	2.025079388274413	-0.3411058789691614	-0.23108496636964393	2.101110162911209	-0.4137288807744439	-0.24235126305143329	2.0223924967715923	-0.2643680735627155	-0.24287003179942743	1.9366391633394242	-0.2209812269456563	-0.25247970854795343	1.8635611705816695	-0.20420142972621125	-0.21081876795774881	2.0283343438726855	-0.42698408561228346	-0.2068030862487149	1.9492104196662259	-0.44486003620875914	-0.2046544883543898	1.8793871179787573	-0.46680909585075486
